<?xml version="1.0" encoding="utf-8"?>
<svg viewBox="32.104 18.43 501.189 507.729" xmlns="http://www.w3.org/2000/svg">
  <g transform="matrix(0.24062800407409668, 0, 0, 0.24398502707481384, -186.52711486816406, 152.9831085205078)" style="">
    <g transform="matrix(1, 0, 0, 1, 1659.473633, 336.095917)">
      <g>
        <path opacity="1.000000" d="M -748.482 208.66 C -748.271 209.471 -747.991 210.279 -747.736 211.089 C -748.206 540.198 -748.206 868.366 -748.206 1196.533 C -417.914 1196.533 -88.06 1196.533 241.794 1196.533 C 241.789 1196.162 241.784 1195.792 241.19 1194.367 C 213.17 1190.947 185.62 1189.508 158.333 1186.018 C 118.598 1180.937 79.345 1173.479 40.554 1163.75 C 40.554 933.561 40.554 704.788 40.554 474.886 C 29.006 473.686 17.133 474.512 5.312 474.359 C -6.349 474.207 -18.019 474.326 -29.683 474.326 C -41.681 474.326 -53.679 474.326 -65.681 474.326 C -77.346 474.326 -89.014 474.326 -100.677 474.326 C -112.675 474.326 -124.673 474.326 -136.675 474.326 C -148.295 474.326 -159.915 474.326 -171.313 474.326 C -173.655 466.856 -174.362 169.123 -172.098 155.39 C -101.482 155.39 -30.666 155.39 41.269 155.39 C 41.269 150.737 41.262 147.174 41.27 143.611 C 41.399 90.951 40.593 38.268 41.888 -14.363 C 43.679 -87.234 52.94 -159.089 77.223 -228.348 C 95.739 -281.164 122.492 -329.096 161.178 -369.964 C 203.066 -414.212 253.812 -444.528 310.792 -464.952 C 355.854 -481.105 402.454 -490.366 449.967 -495.445 C 484.788 -499.168 519.715 -501.087 554.716 -500.613 C 594.705 -500.072 634.607 -497.26 674.234 -491.842 C 704.889 -487.65 735.373 -482.244 765.919 -477.295 C 769.176 -476.768 772.338 -475.68 776.149 -474.695 C 776.149 -378.722 776.149 -282.952 776.149 -186.34 C 764.348 -186.934 752.838 -187.669 741.313 -188.067 C 694.022 -189.702 646.705 -191.458 599.486 -186.851 C 576.579 -184.616 554.101 -179.966 532.339 -172.129 C 483.992 -154.714 451.771 -121.618 435.337 -73.01 C 427.178 -48.878 421.979 -24.021 421.348 1.343 C 420.106 50.967 420.1 100.622 419.611 150.265 C 419.599 151.533 419.927 152.804 420.216 154.981 C 532.999 154.981 645.497 154.981 757.69 154.981 C 759.961 162.247 703.696 461.364 700.295 474.326 C 653.904 474.326 607.283 474.326 560.668 474.326 C 514.058 474.326 467.452 474.326 420.204 474.326 C 420.204 711.974 420.204 948.796 420.204 1185.997 C 395.245 1188.887 370.052 1190.358 344.468 1193.48 C 343.873 1194.905 343.868 1195.275 343.863 1195.647 C 673.538 1195.647 1003.209 1195.647 1333.319 1195.647 C 1333.319 1195.998 1333.319 1196.35 1333.319 1196.701 C 638.872 1196.701 -55.576 1196.701 -750.681 1196.701 C -750.681 868.097 -750.681 539.388 -750.127 209.755 C -749.212 208.774 -748.846 208.717 -748.482 208.66 Z M 420.204 1189.929 C 455.564 1186.057 490.172 1179.93 524.468 1172.154 C 594.081 1156.371 661.437 1133.732 726.323 1104.003 C 805.982 1067.506 879.882 1021.626 948.105 966.589 C 984.178 937.489 1018.21 906.155 1049.982 872.488 C 1113.558 805.119 1167.669 730.814 1211.474 649.076 C 1239.508 596.764 1263.125 542.576 1281.895 486.271 C 1300.857 429.393 1314.981 371.361 1323.62 312.013 C 1327.254 287.047 1331.106 262.102 1331.958 235.927 C 1332.51 235.065 1333.319 234.805 1333.319 234.805 C 1333.319 555.051 1333.319 875.297 1333.319 1195.647 C 1333.5 1195.647 1333.68 1195.647 1333.861 1195.647 C 1333.861 866.272 1333.861 536.895 1333.385 206.567 C 1332.911 205.614 1331.964 205.7 1331.964 205.7 C 1329.03 257.78 1322.641 309.403 1312.321 360.567 C 1298.538 428.907 1277.931 495.103 1250.725 559.237 C 1217.437 637.71 1175.054 710.984 1123.689 779.014 C 1100.638 809.546 1075.856 838.614 1049.66 866.542 C 992.465 927.523 928.745 980.652 858.711 1026.163 C 775.376 1080.32 686.111 1121.76 590.812 1150.29 C 537.219 1166.337 482.74 1178.045 427.325 1185.131 C 424.953 1185.434 422.58 1185.722 420.204 1185.997 C 420.204 1187.308 420.204 1188.618 420.204 1189.929 Z M -747.736 211.089 C -747.734 209.877 -747.733 208.666 -747.731 207.454 C -747.256 206.5 -746.309 206.587 -746.309 206.587 C -743.376 258.667 -736.987 310.289 -726.667 361.454 C -712.883 429.794 -692.277 495.99 -665.071 560.124 C -631.783 638.597 -589.397 711.871 -538.033 779.901 C -514.981 810.433 -490.199 839.5 -464.004 867.429 C -406.808 928.41 -343.087 981.539 -273.054 1027.05 C -189.719 1081.206 -100.454 1122.646 -5.155 1151.177 C 10.01 1155.717 25.246 1159.911 40.554 1163.75 C 40.554 1165.052 40.554 1166.353 40.554 1167.655 C 16.926 1160.678 -5.813 1154.487 -28.221 1147.258 C -124.495 1116.195 -214.273 1071.874 -297.559 1014.414 C -354.42 975.185 -406.935 930.899 -454.987 881.208 C -488.588 846.462 -519.714 809.735 -548.306 770.796 C -611.63 684.56 -660.206 590.664 -694.597 489.41 C -710.76 441.814 -723.341 393.238 -732.205 343.774 C -739.877 300.948 -745.623 257.849 -747.077 214.279 C -747.113 213.21 -747.403 212.149 -747.736 211.089 Z" style="fill-rule: nonzero; stroke: rgb(48, 45, 41); stroke-width: 0px;" fill="#FFFFFF"/>
        <path fill="#0866FF" opacity="1.000000" stroke="none" d="M 265.319 -888.856 C 282.695 -888.856 300.07 -888.856 318.952 -888.232 C 329.429 -887.388 338.399 -887.168 348.247 -886.774 C 355.403 -886.139 361.697 -885.83 367.957 -885.189 C 393.351 -882.589 418.806 -880.437 444.107 -877.113 C 504.879 -869.126 564.172 -854.546 622.303 -835.251 C 681.446 -815.621 738.302 -790.753 793.032 -760.871 C 879.157 -713.847 956.918 -655.607 1026.597 -586.708 C 1049.023 -564.533 1070.068 -540.857 1090.579 -516.87 C 1154.122 -442.562 1205.193 -360.286 1245.156 -271.095 C 1276.395 -201.374 1299.593 -129.035 1314.587 -54.138 C 1322.994 -12.147 1329.909 30.102 1331.441 73.876 C 1331.987 79.534 1332.653 84.339 1333.319 89.144 C 1333.319 131.853 1333.319 174.561 1332.701 218.73 C 1331.943 224.567 1331.805 228.944 1331.534 234.224 C 1331.106 260.441 1327.254 285.386 1323.619 310.352 C 1314.98 369.7 1300.855 427.732 1281.894 484.61 C 1263.124 540.915 1239.508 595.103 1211.472 647.415 C 1167.667 729.153 1113.556 803.458 1049.982 870.827 C 1018.211 904.494 984.176 935.828 948.104 964.928 C 879.88 1019.965 805.982 1065.845 726.324 1102.342 C 661.439 1132.071 594.08 1154.71 524.468 1170.493 C 490.17 1178.269 455.565 1184.396 420.205 1188.268 C 420.205 949.752 420.205 711.626 420.205 472.665 C 467.45 472.665 514.058 472.665 560.667 472.665 C 607.285 472.665 653.904 472.665 700.294 472.665 C 703.696 459.703 759.961 160.586 757.691 153.32 C 645.497 153.32 532.999 153.32 420.217 153.32 C 419.928 151.143 419.601 149.872 419.613 148.604 C 420.101 98.961 420.107 49.306 421.346 -0.318 C 421.98 -25.682 427.177 -50.539 435.337 -74.671 C 451.771 -123.279 483.99 -156.375 532.34 -173.79 C 554.101 -181.627 576.579 -186.277 599.487 -188.512 C 646.703 -193.119 694.021 -191.363 741.313 -189.728 C 752.836 -189.33 764.348 -188.595 776.15 -188.001 C 776.15 -284.613 776.15 -380.383 776.15 -476.356 C 772.339 -477.341 769.175 -478.429 765.92 -478.956 C 735.373 -483.905 704.887 -489.311 674.235 -493.503 C 634.608 -498.921 594.707 -501.733 554.714 -502.274 C 519.717 -502.748 484.789 -500.829 449.966 -497.106 C 402.453 -492.027 355.854 -482.766 310.791 -466.613 C 253.812 -446.189 203.067 -415.873 161.18 -371.625 C 122.492 -330.757 95.738 -282.825 77.222 -230.009 C 52.942 -160.75 43.678 -88.895 41.887 -16.024 C 40.594 36.607 41.399 89.29 41.27 141.95 C 41.262 145.513 41.269 149.076 41.269 153.729 C -30.668 153.729 -101.48 153.729 -172.097 153.729 C -174.36 167.462 -173.655 465.195 -171.313 472.665 C -159.917 472.665 -148.295 472.665 -136.674 472.665 C -124.675 472.665 -112.676 472.665 -100.677 472.665 C -89.012 472.665 -77.346 472.665 -65.68 472.665 C -53.681 472.665 -41.682 472.665 -29.683 472.665 C -18.017 472.665 -6.35 472.546 5.313 472.698 C 17.131 472.851 29.005 472.025 40.555 473.225 C 40.555 704.427 40.555 934.487 40.555 1165.994 C 16.925 1159.017 -5.815 1152.826 -28.22 1145.597 C -124.497 1114.534 -214.275 1070.213 -297.561 1012.753 C -354.421 973.524 -406.935 929.238 -454.987 879.547 C -488.587 844.801 -519.713 808.074 -548.306 769.135 C -611.629 682.899 -660.208 589.003 -694.597 487.749 C -710.761 440.153 -723.341 391.577 -732.204 342.113 C -739.878 299.287 -745.625 256.188 -747.076 212.618 C -747.139 210.732 -747.995 208.872 -748.352 206.093 C -748.198 199.056 -747.973 192.916 -748.265 186.8 C -748.356 184.881 -749.836 183.028 -750.681 181.144 C -750.681 163.769 -750.681 146.394 -749.991 127.569 C -749.025 117.847 -748.748 109.575 -747.966 100.627 C -745.095 72.52 -743.656 44.97 -740.166 17.683 C -733.08 -37.733 -721.371 -92.211 -705.325 -145.805 C -676.794 -241.104 -635.354 -330.369 -581.198 -413.704 C -535.687 -483.737 -482.558 -547.458 -421.577 -604.654 C -393.648 -630.849 -364.581 -655.631 -334.049 -678.683 C -266.019 -730.047 -192.745 -772.433 -114.272 -805.721 C -50.138 -832.927 16.058 -853.533 84.398 -867.317 C 135.563 -877.637 187.185 -884.026 240.188 -886.887 C 246.567 -886.834 252.036 -886.646 257.476 -886.957 C 260.118 -887.108 262.707 -888.193 265.319 -888.856 Z"/>
        <path opacity="1.000000" stroke="none" d="M 239.265 -886.959 C 187.185 -884.026 135.563 -877.637 84.398 -867.317 C 16.058 -853.533 -50.138 -832.927 -114.272 -805.721 C -192.745 -772.433 -266.019 -730.047 -334.049 -678.683 C -364.581 -655.631 -393.648 -630.849 -421.577 -604.654 C -482.558 -547.458 -535.687 -483.737 -581.198 -413.704 C -635.354 -330.369 -676.794 -241.104 -705.325 -145.805 C -721.371 -92.211 -733.08 -37.733 -740.166 17.683 C -743.656 44.97 -745.095 72.52 -748.515 100.54 C -749.94 101.134 -750.31 101.139 -750.681 101.144 C -750.681 -228.71 -750.681 -558.564 -750.681 -888.856 C -421.306 -888.856 -91.93 -888.856 238.398 -888.381 C 239.352 -887.906 239.265 -886.959 239.265 -886.959 Z" style="fill: rgb(48, 45, 41); fill-opacity: 0;"/>
        <path opacity="1.000000" stroke="none" d="M 1331.561 73.023 C 1329.909 30.102 1322.994 -12.147 1314.587 -54.138 C 1299.593 -129.035 1276.395 -201.374 1245.156 -271.095 C 1205.193 -360.286 1154.122 -442.562 1090.579 -516.87 C 1070.068 -540.857 1049.023 -564.533 1026.597 -586.708 C 956.918 -655.607 879.157 -713.847 793.032 -760.871 C 738.302 -790.753 681.446 -815.621 622.303 -835.251 C 564.172 -854.546 504.879 -869.126 444.107 -877.113 C 418.806 -880.437 393.351 -882.589 367.957 -885.189 C 361.697 -885.83 355.403 -886.139 348.2 -887.25 C 347.275 -887.9 347.319 -888.856 347.319 -888.856 C 675.838 -888.856 1004.357 -888.856 1333.319 -888.856 C 1333.319 -568.814 1333.319 -248.772 1332.88 72.168 C 1332.441 73.067 1331.561 73.023 1331.561 73.023 Z" style="fill: rgb(48, 45, 41); fill-opacity: 0;"/>
        <path fill="#ABCBFF" opacity="1.000000" stroke="none" d="M 346.39 -888.856 C 347.319 -888.856 347.275 -887.9 347.322 -887.424 C 338.399 -887.168 329.429 -887.388 319.889 -888.232 C 328.033 -888.856 336.747 -888.856 346.39 -888.856 Z"/>
        <path fill="#AECDFF" opacity="1.000000" stroke="none" d="M 240.188 -886.887 C 239.265 -886.959 239.352 -887.906 239.336 -888.381 C 247.368 -888.856 255.418 -888.856 264.393 -888.856 C 262.707 -888.193 260.118 -887.108 257.476 -886.957 C 252.036 -886.646 246.567 -886.834 240.188 -886.887 Z"/>
        <path fill="#AACAFF" opacity="1.000000" stroke="none" d="M -750.681 102.071 C -750.31 101.139 -749.94 101.134 -749.02 101.216 C -748.748 109.575 -749.025 117.847 -749.991 126.632 C -750.681 119.095 -750.681 111.046 -750.681 102.071 Z"/>
        <path fill="#ADCCFF" opacity="1.000000" stroke="none" d="M -748.352 206.093 C -748.846 207.056 -749.211 207.113 -750.128 207.157 C -750.681 199.095 -750.681 191.046 -750.681 182.071 C -749.836 183.028 -748.356 184.881 -748.265 186.8 C -747.973 192.916 -748.198 199.056 -748.352 206.093 Z"/>
        <path fill="#AACAFF" opacity="1.000000" stroke="none" d="M 1331.441 73.876 C 1331.561 73.023 1332.441 73.067 1332.88 73.105 C 1333.319 77.885 1333.319 82.626 1333.319 88.256 C 1332.653 84.339 1331.987 79.534 1331.441 73.876 Z"/>
        <path fill="#A7C8FF" opacity="1.000000" stroke="none" d="M 1333.319 232.269 C 1333.319 233.144 1332.511 233.404 1332.088 233.362 C 1331.805 228.944 1331.943 224.567 1332.701 219.667 C 1333.319 223.227 1333.319 227.311 1333.319 232.269 Z"/>
      </g>
    </g>
  </g>
</svg>