<?xml version="1.0" encoding="utf-8"?>
<svg viewBox="0 0 500 500" xmlns="http://www.w3.org/2000/svg">
  <defs/>
  <g transform="matrix(1.398484, 0, 0, 1.398484, -145.45018, -100.97744)" style="">
    <g>
      <g>
        <g>
          <path d="M 237.671 344.411 C 237.671 344.411 224.472 352.087 247.064 354.684 C 274.432 357.806 288.42 357.358 318.581 351.65 C 318.581 351.65 326.51 356.622 337.584 360.928 C 269.972 389.906 184.565 359.25 237.671 344.411" style="fill: rgb(0, 115, 150);"/>
          <path d="M 229.409 306.598 C 229.409 306.598 214.606 317.555 237.214 319.894 C 266.45 322.91 289.538 323.157 329.49 315.464 C 329.49 315.464 335.016 321.066 343.705 324.13 C 261.958 348.033 170.907 326.015 229.409 306.598" style="fill: rgb(0, 115, 150);"/>
          <path d="M 299.059 242.453 C 315.718 261.634 294.682 278.894 294.682 278.894 C 294.682 278.894 336.983 257.057 317.556 229.711 C 299.412 204.21 285.497 191.539 360.824 147.853 C 360.824 147.853 242.586 177.383 299.059 242.453" style="fill: rgb(237, 139, 0);"/>
          <path d="M 244.018 267.419 C 244.018 267.419 181.246 282.328 221.789 287.742 C 238.907 290.034 273.032 289.516 304.819 286.852 C 330.797 284.661 356.882 280.002 356.882 280.002 C 356.882 280.002 347.722 283.924 341.095 288.45 C 277.351 305.214 154.209 297.415 189.66 280.267 C 219.641 265.775 244.018 267.419 244.018 267.419" style="fill: rgb(0, 115, 150);"/>
        </g>
        <path d="M 388.481 372.38 C 388.481 372.38 398.248 380.428 377.724 386.654 C 338.698 398.477 215.292 402.047 181.01 387.125 C 168.687 381.764 191.797 374.324 199.066 372.763 C 206.647 371.119 210.98 371.425 210.98 371.425 C 197.275 361.771 122.397 390.382 172.946 398.576 C 310.798 420.932 424.238 388.509 388.481 372.38" style="fill: rgb(0, 115, 150);"/>
      </g>
    </g>
    <path d="M 356.623 330.361 C 421.422 296.689 391.462 264.331 370.55 268.69 C 365.424 269.757 363.139 270.681 363.139 270.681 C 363.139 270.681 365.042 267.701 368.676 266.41 C 410.046 251.866 441.863 309.308 355.321 332.058 C 355.321 332.059 356.324 331.163 356.623 330.361" style="fill: rgb(0, 115, 150);"/>
    <path d="M 317.556 77.31 C 317.556 77.31 353.442 113.209 283.519 168.411 C 227.448 212.692 270.733 237.94 283.496 266.787 C 250.766 237.257 226.747 211.261 242.861 187.067 C 266.512 151.552 332.035 134.333 317.556 77.31" style="fill: rgb(237, 139, 0);"/>
    <path d="M 250.385 421.604 C 312.584 425.586 408.097 419.395 410.359 389.964 C 410.359 389.964 406.011 401.121 358.955 409.982 C 305.867 419.972 240.391 418.806 201.556 412.403 C 201.557 412.402 209.506 418.983 250.385 421.604" style="fill: rgb(0, 115, 150);"/>
  </g>
</svg>